<svg width="574" height="163" viewBox="0 0 574 163" fill="none" xmlns="http://www.w3.org/2000/svg">
<g clip-path="url(#clip0_2_979)">
<path d="M264.599 54.8042C265.381 54.8042 265.773 55.2495 265.773 56.14C265.773 56.4638 265.638 56.7607 265.368 57.0305C260.942 61.4562 255.842 63.669 250.067 63.669C248.691 63.669 247.153 62.8864 245.453 61.3212C243.779 59.7831 242.943 57.5298 242.943 54.5613C242.943 51.6199 244.737 48.3411 248.327 44.7251C251.889 41.109 256.881 37.6818 263.304 34.4435C269.699 31.2052 277.7 28.3178 287.307 25.7811C296.887 23.2714 305.496 22.0166 313.133 22.0166C320.77 22.0166 327.044 22.6238 331.955 23.8381C336.867 25.0795 340.699 26.6177 343.451 28.4527C346.231 30.2607 348.511 32.2981 350.292 34.5649C353.288 38.3699 354.785 42.2289 354.785 46.1418C354.785 50.0817 353.53 54.1296 351.021 58.2854C348.484 62.4412 345.205 66.1382 341.184 69.3765C337.137 72.6417 332.508 75.6641 327.3 78.4437C317.531 83.6249 307.088 87.4164 295.97 89.8181C297.886 91.7881 301.907 96.686 308.032 104.512C314.185 112.338 319.798 118.882 324.872 124.144C329.972 129.406 333.912 132.037 336.691 132.037L339.322 131.106C339.889 131.106 340.172 131.336 340.172 131.794C340.172 132.226 339.214 133.508 337.298 135.64C335.382 137.772 333.709 139.391 332.279 140.497C330.849 141.604 328.906 142.157 326.45 142.157C323.994 142.157 321.215 140.969 318.112 138.595C315.008 136.247 311.608 132.901 307.911 128.556C304.241 124.238 300.922 120.177 297.953 116.372C295.012 112.54 291.639 108.033 287.834 102.852C284.056 97.644 281.451 94.1224 280.021 92.2873C279.482 93.1239 278.132 95.2153 275.973 98.5615C273.815 101.908 272.236 104.377 271.237 105.969C270.239 107.534 268.795 109.842 266.906 112.891C264.99 115.913 263.506 118.342 262.454 120.177C259.566 125.088 257.556 128.758 256.422 131.187C255.289 133.616 253.427 134.83 250.836 134.83L248.084 134.749L245.695 134.83C242.43 134.83 240.797 133.454 240.797 130.701C240.797 128.651 241.675 125.709 243.429 121.877C245.21 118.072 254.587 103.824 271.561 79.1318C288.535 54.4399 297.886 41.2574 299.613 39.5843C301.367 37.9382 302.662 37.0071 303.499 36.7913C304.12 36.3055 304.538 36.0626 304.754 36.0626L306.17 36.3055L307.547 36.0626C308.005 36.0626 308.424 36.265 308.802 36.6698C309.152 37.0746 309.409 37.3175 309.571 37.3984C311.783 39.0446 312.89 40.4208 312.89 41.5272C312.89 42.6337 312.62 43.6996 312.08 44.7251C311.514 45.7505 310.002 48.0578 307.547 51.6469C305.064 55.236 301.799 59.891 297.751 65.612C293.73 71.3329 290.816 75.4752 289.007 78.0389C293.352 77.85 298.547 76.5412 304.592 74.1125C310.664 71.6838 316.344 68.7693 321.633 65.3691C326.922 61.9689 331.456 58.2719 335.234 54.278C339.012 50.3111 340.901 46.8569 340.901 43.9155C340.901 42.3233 340.078 40.8796 338.432 39.5843C336.813 38.289 334.762 37.277 332.279 36.5484C327.314 35.0642 321.728 34.3221 315.521 34.3221C309.287 34.3221 301.407 35.6714 291.881 38.3699C282.329 41.0415 275.366 43.6052 270.995 46.0608C266.623 48.5165 263.466 50.6079 261.523 52.335C259.58 54.0351 258.608 55.2225 258.608 55.8971C258.608 56.2749 259.148 56.4638 260.227 56.4638C261.307 56.4638 262.265 56.194 263.101 55.6543C263.938 55.0876 264.437 54.8042 264.599 54.8042ZM397.895 75.934C401.889 75.934 403.886 77.2968 403.886 80.0223C403.886 81.5065 403.548 82.586 402.874 83.2606C402.199 83.9622 400.742 86.2425 398.502 90.1015C396.262 93.9874 393.78 98.9393 391.054 104.957C388.328 111.002 386.574 116.156 385.792 120.42C385.63 120.96 385.549 121.702 385.549 122.646C385.549 125.534 386.345 126.977 387.937 126.977C389.502 126.977 391.378 126.235 393.564 124.751C395.723 123.24 397.639 121.634 399.312 119.934C401.012 118.207 402.658 116.453 404.25 114.672C405.869 112.864 406.827 111.825 407.124 111.555C407.448 111.312 407.934 111.191 408.581 111.191C409.58 111.191 410.187 111.946 410.403 113.458C410.592 114.996 410.686 116.588 410.686 118.234C410.686 119.853 410.538 120.987 410.241 121.634C408.703 124.63 405.343 128.232 400.162 132.442C394.953 136.652 390.231 138.757 385.994 138.757C381.757 138.757 378.641 137.475 376.644 134.911C374.62 132.321 373.608 129.46 373.608 126.33C373.608 123.199 374.134 120.447 375.186 118.072C370.815 123.766 365.795 128.583 360.128 132.523C354.461 136.49 349.847 138.473 346.285 138.473C342.696 138.473 339.768 137.38 337.501 135.195C334.586 132.523 333.129 128.799 333.129 124.022C333.129 119.246 334.195 114.456 336.327 109.653C338.486 104.822 341.292 100.41 344.747 96.4161C348.228 92.4492 352.06 88.8332 356.242 85.5679C364.986 78.7135 373.041 75.2863 380.408 75.2863C383.269 75.2863 385.589 75.7586 387.37 76.7031C389.179 77.6476 390.312 78.835 390.771 80.2652C392.039 78.3762 393.105 77.1753 393.968 76.6626C394.832 76.1769 396.141 75.934 397.895 75.934ZM387.37 84.6774C378.357 84.6774 369.034 89.6967 359.4 99.7354C355.973 103.297 352.815 107.588 349.928 112.608C347.067 117.6 345.637 121.027 345.637 122.889C345.637 124.724 346.163 125.642 347.216 125.642C348.7 125.642 352.815 122.727 359.562 116.898C366.308 111.069 370.788 106.792 373.001 104.067C375.429 101.017 380.219 94.5541 387.37 84.6774ZM412.184 120.177L412.103 121.472C412.103 122.768 412.616 123.901 413.641 124.873C414.64 125.817 415.557 126.289 416.394 126.289C422.708 126.289 428.308 125.331 433.192 123.415C438.077 121.526 440.519 119.637 440.519 117.748C440.519 116.858 439.628 116.075 437.847 115.401C436.093 114.753 433.125 113.943 428.942 112.972C424.732 112 421.683 111.231 419.794 110.665C417.905 110.125 416.407 109.612 415.301 109.126C414.194 108.641 413.061 107.979 411.901 107.143C409.418 105.416 408.176 102.825 408.176 99.3711C408.176 95.9169 409.458 92.4897 412.022 89.0895C414.559 85.6893 417.756 82.7749 421.615 80.3462C425.447 77.9174 429.59 75.7856 434.042 73.9505C442.786 70.3075 450.126 68.4859 456.063 68.4859C461.919 68.4859 465.535 69.7543 466.911 72.2909C467.343 73.1815 467.559 74.1799 467.559 75.2863V75.853C467.559 78.6326 466.965 80.8184 465.778 82.4106C464.59 83.9757 462.715 85.3925 460.151 86.6608C457.587 87.9291 455.563 88.5633 454.079 88.5633C452.568 88.5633 451.61 88.4554 451.205 88.2395C450.827 88.0236 450.504 87.7537 450.234 87.4299C449.964 87.0791 449.627 86.8227 449.222 86.6608C448.844 86.4989 448.655 86.1076 448.655 85.4869C448.655 84.8663 448.911 84.2186 449.424 83.544C449.964 82.8963 450.342 82.1947 450.558 81.4391C447.076 81.601 443.433 82.4106 439.628 83.8678C435.85 85.325 432.599 86.9442 429.873 88.7252C427.147 90.5063 424.894 92.2199 423.113 93.866C421.332 95.5121 420.442 96.713 420.442 97.4686C420.442 98.2242 421.642 98.8448 424.044 99.3306C434.973 101.489 442.152 103.351 445.579 104.917C449.006 106.509 451.367 108.303 452.662 110.3C453.985 112.297 454.646 114.119 454.646 115.765C454.646 119.138 453.31 122.322 450.639 125.318C447.94 128.34 444.621 130.796 440.681 132.685C432.18 136.841 424.786 138.919 418.499 138.919C412.184 138.919 407.826 137.961 405.424 136.045C403.049 134.129 401.862 131.848 401.862 129.204C401.862 126.559 402.523 124.117 403.845 121.877C405.195 119.637 406.922 118.517 409.027 118.517C411.131 118.517 412.184 119.071 412.184 120.177ZM516.7 75.7721C518.292 75.7721 519.924 76.4737 521.598 77.877C523.244 79.3072 524.067 81.493 524.067 84.4345C524.067 87.3489 523.041 91.1404 520.99 95.809C518.939 100.477 516.119 105.213 512.53 110.017C508.941 114.847 505.001 119.381 500.711 123.618C496.42 127.881 491.778 131.363 486.786 134.061C481.821 136.787 477.3 138.149 473.226 138.149C469.178 138.149 465.926 136.868 463.47 134.304C461.015 131.74 459.787 128.178 459.787 123.618C459.787 119.057 460.907 114.011 463.146 108.479C465.386 102.947 468.274 98.0623 471.809 93.8255C475.344 89.5888 479.162 85.7838 483.264 82.4106C491.873 75.5022 499.415 72.0481 505.892 72.0481C508.779 72.0481 510.965 72.7632 512.449 74.1934C512.989 74.6522 513.259 75.0705 513.259 75.4483V75.934C513.988 75.8261 515.134 75.7721 516.7 75.7721ZM508.725 86.256H508.199C506.337 86.256 505.406 84.9202 505.406 82.2486C501.574 83.517 497.54 85.7298 493.303 88.8871C489.093 92.0445 485.329 95.782 482.009 100.1C475.263 108.762 471.836 116.062 471.728 121.999C471.728 124.967 472.807 126.451 474.966 126.451C477.125 126.451 480.35 125.021 484.641 122.16C488.904 119.327 493.128 115.266 497.31 109.976C501.493 104.714 504.623 100.154 506.701 96.2947C508.806 92.4088 509.859 89.7642 509.859 88.3609C509.859 86.9576 509.481 86.256 508.725 86.256ZM573.815 49.1777C573.815 52.2001 572.412 55.2225 569.605 58.2449C566.826 61.2673 563.911 62.7785 560.862 62.7785C557.839 62.7785 556.328 61.1998 556.328 58.0425C556.328 54.8852 557.664 51.8763 560.336 49.0158C562.98 46.1283 565.908 44.6846 569.119 44.6846C570.55 44.6846 571.683 45.0759 572.52 45.8585C573.383 46.668 573.815 47.7744 573.815 49.1777ZM560.983 118.234C560.983 119.799 560.835 120.933 560.538 121.634C557.947 126.896 553.832 131.147 548.192 134.385C542.552 137.623 537.654 139.242 533.498 139.242C529.315 139.242 525.726 137.853 522.731 135.073C519.736 132.267 518.238 129.42 518.238 126.532C518.238 123.618 519.682 119.394 522.569 113.862C525.456 108.33 528.357 103.217 531.272 98.521C534.159 93.8255 535.603 91.2889 535.603 90.9111C535.603 90.5063 535.063 89.7237 533.984 88.5633C532.905 87.4029 532.365 86.5529 532.365 86.0131C532.365 85.4464 533.458 83.9892 535.644 81.6415C537.829 79.2937 540.501 76.9729 543.658 74.6792C546.789 72.3854 549.177 71.2385 550.823 71.2385C552.496 71.2385 553.994 71.9806 555.316 73.4648C556.611 74.949 557.259 76.2983 557.259 77.5127C557.259 78.727 550.998 90.1285 538.477 111.717C538.315 112.041 537.87 112.742 537.141 113.822C536.44 114.901 535.886 115.805 535.482 116.534C535.104 117.236 534.645 118.086 534.105 119.084C533.053 121.189 532.527 122.957 532.527 124.387C532.527 126.168 533.741 127.058 536.17 127.058C538.599 127.058 541.108 126.235 543.699 124.589C546.316 122.916 548.57 121.081 550.459 119.084C555.424 113.768 558.244 111.11 558.919 111.11C560.295 111.11 560.983 113.485 560.983 118.234Z" fill="#F1414F"/>
</g>
<g clip-path="url(#clip1_2_979)">
<path d="M14.1858 55.591L186.693 40.5994L184.962 20.6993L131.422 25.348L115.351 0L77.0695 3.33L63.7495 31.2287L12.4542 35.6843L14.1858 55.591ZM90.1831 22.2444L104.988 20.959L109.011 27.2993L86.8531 29.2241L90.1831 22.2444Z" fill="#F1414F"/>
<path d="M199.8 95.591H182.73L188.278 62.291H11.5151L17.0629 95.591H0V115.571H20.3996L28.1718 162.191H171.635L179.407 115.571H199.8V95.591ZM154.705 142.211H45.0949L35.1049 82.271H164.702L154.705 142.211Z" fill="#F1414F"/>
</g>
<defs>
<clipPath id="clip0_2_979">
<rect width="333" height="120.171" fill="white" transform="translate(240.8 22)"/>
</clipPath>
<clipPath id="clip1_2_979">
<rect width="199.8" height="162.191" fill="white"/>
</clipPath>
</defs>
</svg>
