<svg xmlns="http://www.w3.org/2000/svg" xmlns:xlink="http://www.w3.org/1999/xlink" viewBox="278.6607 291.9427 332.5272 311.9607" width="333" height="312.40425775695945" x="83.5px" y="93.7979px" preserveAspectRatio="none"><defs/><style>.companyName {fill:#161616;fill-opacity:1;}.icon1 {fill:#161616;fill-opacity:1;}.icon2 {fill:#E5B7D2;fill-opacity:1;}.icon3 {fill:#848282;fill-opacity:1;}.icon3-str {stroke:#848282;stroke-opacity:1;}</style><g opacity="1" transform="rotate(0 278.6607 483.9034)">
<svg width="332.5272" height="120" x="278.6607" y="483.9034" version="1.1" preserveAspectRatio="none" viewBox="6.6406 -28.1641 82.26569999999998 29.6875">
  <g transform="matrix(1 0 0 1 0 0)" class="companyName"><path id="id-D6z1nYkh5" d="M12.52-20.06L12.52-20.06Q12.81-20.06 12.81-19.73L12.81-19.73Q12.81-19.61 12.71-19.51L12.71-19.51Q11.07-17.87 8.93-17.87L8.93-17.87Q8.42-17.87 7.79-18.45Q7.17-19.02 7.17-20.12Q7.17-21.21 8.50-22.55Q9.82-23.89 12.20-25.09Q14.57-26.29 18.13-27.23Q21.68-28.16 24.51-28.16Q27.34-28.16 29.16-27.71Q30.98-27.25 32.00-26.57Q33.03-25.90 33.69-25.06L33.69-25.06Q34.80-23.65 34.80-22.20Q34.80-20.74 33.87-19.20Q32.93-17.66 31.44-16.46Q29.94-15.25 28.01-14.22L28.01-14.22Q24.39-12.30 20.27-11.41L20.27-11.41Q20.98-10.68 23.25-7.78Q25.53-4.88 27.41-2.93Q29.30-0.98 30.33-0.98L30.33-0.98L30.98-1.21Q31.19-1.21 31.19-1.04Q31.19-0.88 30.48-0.09Q29.77 0.70 29.24 1.11Q28.71 1.52 27.80 1.52Q26.89 1.52 25.74 0.64Q24.59-0.23 23.22-1.84Q21.86-3.44 20.76-4.85Q19.67-6.27 18.26-8.19Q16.86-10.12 16.33-10.80L16.33-10.80Q16.13-10.49 15.33-9.25Q14.53-8.01 14.16-7.42Q13.79-6.84 13.09-5.71Q12.38-4.59 11.99-3.91L11.99-3.91Q10.92-2.09 10.50-1.19Q10.08-0.29 9.12-0.29L9.12-0.29L8.44-0.31L7.85-0.29Q6.64-0.29 6.64-1.31L6.64-1.31Q6.64-2.07 7.29-3.49Q7.95-4.90 14.24-14.05Q20.53-23.20 21.17-23.82Q21.82-24.43 22.13-24.51L22.13-24.51Q22.36-24.69 22.44-24.69L22.44-24.69L22.79-24.63L23.13-24.69Q23.30-24.69 23.44-24.54Q23.57-24.39 23.63-24.36L23.63-24.36Q24.45-23.75 24.45-23.34Q24.45-22.93 24.25-22.55Q24.04-22.17 23.13-20.84Q22.21-19.51 20.71-17.39Q19.22-15.27 18.55-14.32L18.55-14.32Q20.16-14.39 22.40-15.29Q24.65-16.19 26.61-17.45Q28.57-18.71 29.97-20.19Q31.37-21.66 31.37-22.75L31.37-22.75Q31.37-23.34 30.76-23.82Q30.16-24.30 29.24-24.57L29.24-24.57Q27.40-25.12 25.10-25.12Q22.79-25.12 19.26-24.12Q15.72-23.13 14.10-22.22Q12.48-21.31 11.76-20.67Q11.04-20.04 11.04-19.79L11.04-19.79Q11.04-19.65 11.44-19.65Q11.84-19.65 12.15-19.85Q12.46-20.06 12.52-20.06Z M45.45-14.84L45.45-14.84Q46.93-14.84 46.93-13.83L46.93-13.83Q46.93-13.28 46.68-13.03Q46.43-12.77 45.60-11.34Q44.77-9.90 43.76-7.67Q42.75-5.43 42.46-3.85L42.46-3.85Q42.40-3.65 42.40-3.30L42.40-3.30Q42.40-2.23 42.99-2.23Q43.57-2.23 44.38-2.78Q45.18-3.34 45.80-3.97Q46.43-4.61 47.02-5.27Q47.62-5.94 47.73-6.04Q47.85-6.13 48.09-6.13L48.09-6.13Q48.46-6.13 48.54-5.57Q48.61-5 48.61-4.39Q48.61-3.79 48.50-3.55L48.50-3.55Q47.93-2.44 46.01-0.88Q44.08 0.68 42.51 0.68Q40.94 0.68 40.20-0.27Q39.45-1.23 39.45-2.39Q39.45-3.55 39.84-4.43L39.84-4.43Q38.22-2.32 36.12-0.86Q34.02 0.61 32.70 0.61Q31.37 0.61 30.53-0.20L30.53-0.20Q29.45-1.19 29.45-2.96Q29.45-4.73 30.24-6.51Q31.04-8.30 32.32-9.78Q33.61-11.25 35.16-12.46L35.16-12.46Q38.40-15 41.13-15L41.13-15Q42.19-15 42.85-14.65Q43.52-14.30 43.69-13.77L43.69-13.77Q44.16-14.47 44.48-14.66Q44.80-14.84 45.45-14.84ZM42.85-12.68L42.85-12.68Q39.51-12.68 35.94-8.96L35.94-8.96Q34.67-7.64 33.60-5.78Q32.54-3.93 32.54-3.24Q32.54-2.56 32.93-2.56L32.93-2.56Q33.48-2.56 35.98-4.72Q38.48-6.88 39.30-7.89L39.30-7.89Q40.20-9.02 42.85-12.68Z M48.98-3.91L48.98-3.91L48.96-3.59Q48.96-3.11 49.34-2.75Q49.71-2.40 50.02-2.40L50.02-2.40Q52.36-2.40 54.17-3.11Q55.98-3.81 55.98-4.51L55.98-4.51Q55.98-4.84 55.32-5.09Q54.67-5.33 53.12-5.69Q51.56-6.05 50.86-6.26Q50.16-6.46 49.75-6.64Q49.34-6.82 48.91-7.13L48.91-7.13Q47.99-7.77 47.99-9.05Q47.99-10.33 48.94-11.59Q49.88-12.85 51.31-13.75Q52.73-14.65 54.38-15.33L54.38-15.33Q57.62-16.68 59.82-16.68L59.82-16.68Q61.99-16.68 62.50-15.74L62.50-15.74Q62.66-15.41 62.66-15L62.66-15L62.66-14.86Q62.66-13.83 62.22-13.24Q61.78-12.66 60.83-12.19Q59.88-11.72 59.33-11.72Q58.77-11.72 58.62-11.80Q58.48-11.88 58.38-12.00Q58.28-12.13 58.13-12.19Q57.99-12.25 57.99-12.48Q57.99-12.71 58.18-12.96Q58.38-13.20 58.46-13.48L58.46-13.48Q57.17-13.42 55.76-12.88Q54.36-12.34 53.35-11.68Q52.34-11.02 51.68-10.41Q51.02-9.80 51.02-9.52Q51.02-9.24 51.91-9.06L51.91-9.06Q55.96-8.26 57.23-7.68Q58.50-7.09 58.98-6.35Q59.47-5.61 59.47-5L59.47-5Q59.47-3.75 58.48-2.64Q57.48-1.52 56.02-0.82L56.02-0.82Q52.87 0.72 50.54 0.72Q48.20 0.72 47.31 0.01Q46.43-0.70 46.43-1.68Q46.43-2.66 46.92-3.49Q47.42-4.32 48.20-4.32Q48.98-4.32 48.98-3.91Z M74.80-14.88Q75.39-14.88 76.01-14.36Q76.62-13.83 76.62-12.74Q76.62-11.66 75.86-9.93Q75.10-8.20 73.77-6.42Q72.44-4.63 70.85-3.06Q69.26-1.48 67.41-0.48Q65.57 0.53 64.06 0.53Q62.56 0.53 61.65-0.42Q60.74-1.37 60.74-3.06Q60.74-4.75 61.57-6.80Q62.40-8.85 63.71-10.42Q65.02-11.99 66.54-13.24L66.54-13.24Q69.73-15.80 72.13-15.80L72.13-15.80Q73.20-15.80 73.75-15.27L73.75-15.27Q73.95-15.10 73.95-14.96L73.95-14.96L73.95-14.84Q74.22-14.88 74.80-14.88ZM72.83-12.29L72.83-12.29L72.70-12.29Q72.01-12.29 72.01-13.28L72.01-13.28Q70.59-12.81 69.02-11.64Q67.46-10.47 66.23-8.87L66.23-8.87Q63.73-5.66 63.69-3.46L63.69-3.46Q63.69-2.36 64.49-2.36Q65.29-2.36 66.88-3.42Q68.46-4.47 70.01-6.43Q71.56-8.38 72.33-9.81Q73.11-11.25 73.11-11.77Q73.11-12.29 72.83-12.29Z M88.91-21.45L88.91-21.45Q88.91-20.33 87.87-19.21Q86.84-18.09 85.71-18.09Q84.59-18.09 84.59-19.26Q84.59-20.43 85.58-21.49Q86.56-22.56 87.75-22.56L87.75-22.56Q88.28-22.56 88.59-22.27Q88.91-21.97 88.91-21.45ZM85.74-4.39L85.74-4.39Q85.74-3.81 85.63-3.55L85.63-3.55Q84.67-1.60 82.58-0.40Q80.49 0.80 78.95 0.80Q77.40 0.80 76.29-0.23Q75.18-1.27 75.18-2.34Q75.18-3.42 76.25-5.47Q77.32-7.52 78.40-9.26Q79.47-11.00 79.47-11.14Q79.47-11.29 79.07-11.72Q78.67-12.15 78.67-12.35Q78.67-12.56 79.48-13.43Q80.29-14.30 81.46-15.15Q82.62-16.00 83.23-16.00Q83.85-16.00 84.34-15.45Q84.82-14.90 84.82-14.45Q84.82-14.00 80.18-6.00L80.18-6.00Q80.12-5.88 79.85-5.48Q79.59-5.08 79.44-4.81Q79.30-4.55 79.10-4.18L79.10-4.18Q78.71-3.40 78.71-2.87L78.71-2.87Q78.71-2.21 79.61-2.21Q80.51-2.21 81.47-2.82Q82.44-3.44 83.14-4.18L83.14-4.18Q84.98-6.15 85.23-6.15L85.23-6.15Q85.74-6.15 85.74-4.39Z"/></g>
</svg>
</g><g opacity="1" transform="rotate(0 345.1662 291.9427)">
<svg width="199.5163" height="161.9607" x="345.1662" y="291.9427" version="1.1" preserveAspectRatio="none" viewBox="10 13.647001266479492 30 24.352998733520508">
  <g transform="matrix(1 0 0 1 0 0)" class="icon1"><g><path d="M12.13,21.994l25.902-2.251l-0.26-2.988l-8.039,0.698l-2.413-3.806l-5.748,0.5l-2,4.189l-7.702,0.669   L12.13,21.994z M23.541,16.987l2.223-0.193l0.604,0.952l-3.327,0.289L23.541,16.987z"/><path d="M40,28h-2.563l0.833-5H11.729l0.833,5H10v3h3.063l1.167,7h21.541l1.167-7H40V28z M33.229,35H16.771l-1.5-9   h19.459L33.229,35z"/></g></g>
</svg>
</g></svg>